<svg width="109" height="190" viewBox="0 0 109 190" fill="none" xmlns="http://www.w3.org/2000/svg">
<path d="M6 73.7C6 73 7.5001 72.7 8.6001 72.7H100.1C101.1 72.7 101.3 73 101.3 73.7V171.2C101.305 171.612 101.184 172.016 100.951 172.356C100.718 172.696 100.386 172.956 100 173.1L56.2001 189.1C55.1545 189.4 54.0456 189.4 53 189.1L8 173.1C7.1 172.8 6 171.9 6 171.2V73.7Z" fill="#F7F7F7"/>
<path opacity="0.42" d="M97.9984 107.6V96.4H9.39844L97.9984 107.6Z" fill="#E0E0E0"/>
<path d="M103.801 91.4999C103.801 91.4999 59.8008 106 4.30078 91.4999V63.2C55.5008 76.5 103.801 63.2 103.801 63.2V91.4999Z" fill="white"/>
<path d="M103.8 63.2V91.5C103.8 91.5 84.2001 98 54.8 98C37.7589 97.9887 20.7886 95.8045 4.30005 91.5V63.2C20.1564 67.187 36.4503 69.1691 52.8 69.1C82.4 69.2 103.8 63.2 103.8 63.2ZM108.1 57.6L102.7 59.1C102.5 59.2 81.4 64.9 52.9 64.9C36.8831 65.0175 20.918 63.0681 5.40002 59.1L0 57.7V94.9L3.20007 95.7C20.0151 100.087 37.3222 102.305 54.7001 102.3C84.5001 102.3 104.3 95.9 105.1 95.6L108 94.6L108.1 57.6Z" fill="#F7F7F7"/>
<path d="M20.7999 74.2999C21.0725 74.3833 21.3398 74.4835 21.6 74.5999L22.2 75.1999C22.3999 75.4176 22.5074 75.7045 22.4999 75.9999C22.5997 76.2916 22.5997 76.6082 22.4999 76.8999L20.9999 85.4999C20.9616 85.7858 20.8591 86.0593 20.7 86.2999L20.1 86.8999C19.8736 87.0852 19.5923 87.1906 19.2999 87.1999C19.0082 87.2997 18.6916 87.2997 18.3999 87.1999C16.0999 86.7999 13.6999 86.2999 11.3999 85.6999C11.0828 85.6091 10.7798 85.4744 10.4999 85.2999C10.2999 85.0999 9.99991 84.8999 9.89991 84.6999C9.69998 84.4822 9.59249 84.1954 9.59998 83.8999C9.55001 83.602 9.55001 83.2978 9.59998 82.9999L11.6 74.4999C11.6926 74.2148 11.8273 73.9451 11.9999 73.6999L12.6 73.0999C12.8602 72.9835 13.1273 72.8833 13.3999 72.7999C13.6978 72.75 14.002 72.75 14.2999 72.7999C16.3999 73.3999 18.5999 73.8999 20.7999 74.2999ZM19.1 77.1999C17.6 76.8999 16.1 76.5999 14.7 76.2999L13.2 82.8999C14.7 83.1999 16.2999 83.5999 17.7999 83.8999L19.1 77.1999Z" fill="#6B7373"/>
<path d="M35.7992 76.6C35.837 76.6395 35.8655 76.6869 35.8828 76.7388C35.9001 76.7906 35.9057 76.8457 35.8992 76.9L35.5993 79.4C35.5887 79.4758 35.5535 79.546 35.4992 79.6C35.4597 79.6378 35.4124 79.6664 35.3605 79.6836C35.3086 79.7009 35.2535 79.7065 35.1992 79.7C33.0992 79.5 30.8992 79.2 28.7992 78.9C28.6992 78.9 28.6992 78.9 28.6992 79L28.3992 81C28.3992 81.0265 28.4097 81.0519 28.4285 81.0707C28.4472 81.0894 28.4726 81.1 28.4992 81.1L33.3992 81.7C33.475 81.7106 33.5453 81.7457 33.5993 81.8C33.6371 81.8395 33.6656 81.8869 33.6829 81.9388C33.7002 81.9906 33.7058 82.0457 33.6992 82.1L33.3992 84.4C33.3886 84.4758 33.3535 84.546 33.2992 84.6C33.2597 84.6378 33.2123 84.6664 33.1604 84.6836C33.1085 84.7009 33.0534 84.7065 32.9992 84.7L27.9992 84.1C27.9726 84.1 27.9472 84.1105 27.9285 84.1293C27.9097 84.148 27.8992 84.1735 27.8992 84.2L27.2992 88.3C27.2992 88.5 27.0992 88.6 26.8992 88.6C25.9992 88.5 25.0993 88.3 24.0993 88.2C23.7993 88.2 23.6992 88 23.7992 87.8L25.6992 75.6C25.6944 75.5594 25.6988 75.5183 25.7122 75.4797C25.7255 75.4411 25.7475 75.4061 25.7764 75.3772C25.8053 75.3483 25.8403 75.3263 25.8789 75.313C25.9175 75.2996 25.9586 75.2952 25.9992 75.3H26.0993C29.1993 75.8 32.2992 76.2 35.3992 76.5C35.6992 76.5 35.6992 76.5 35.7992 76.6Z" fill="#6B7373"/>
<path d="M47.8 77.5C47.8378 77.5395 47.8663 77.5869 47.8836 77.6388C47.9009 77.6906 47.9065 77.7457 47.8999 77.8L47.8 80.3C47.8 80.4 47.8 80.5 47.7 80.5C47.6605 80.5378 47.6131 80.5664 47.5612 80.5836C47.5093 80.6009 47.4542 80.6065 47.3999 80.6C45.2999 80.5 43.0999 80.4 40.9999 80.2C40.8999 80.2 40.8999 80.2 40.8999 80.3L40.7 82.3C40.7 82.3265 40.7105 82.3519 40.7293 82.3707C40.748 82.3894 40.7734 82.4 40.8 82.4L45.7 82.7C45.8 82.7 45.8999 82.7 45.8999 82.8C45.9377 82.8395 45.9664 82.8869 45.9837 82.9388C46.001 82.9906 46.0064 83.0457 45.9999 83.1L45.8999 85.4C45.8999 85.5 45.9 85.6 45.8 85.6C45.7605 85.6378 45.713 85.6664 45.6612 85.6836C45.6093 85.7009 45.5542 85.7065 45.4999 85.7L40.4999 85.4C40.3999 85.4 40.3999 85.4 40.3999 85.5L40.1 89.7C40.1 89.9 39.9 90 39.7 90C38.7709 89.8836 37.8362 89.8169 36.8999 89.8C36.5999 89.8 36.5 89.6 36.6 89.4L37.8 77.1C37.7951 77.0594 37.7995 77.0183 37.8129 76.9797C37.8263 76.9411 37.8482 76.9061 37.8771 76.8772C37.906 76.8483 37.9411 76.8263 37.9797 76.813C38.0182 76.7996 38.0595 76.7952 38.1 76.8H38.2C41.3 77.1 44.4 77.3 47.6 77.4C47.6768 77.4073 47.7481 77.4429 47.8 77.5Z" fill="#6B7373"/>
<path d="M52.9008 90.2C52.9053 90.2536 52.8981 90.3077 52.8796 90.3583C52.8611 90.4089 52.8318 90.4548 52.7937 90.4929C52.7556 90.531 52.7097 90.5603 52.6591 90.5788C52.6085 90.5973 52.5544 90.6045 52.5007 90.6C51.5663 90.6166 50.6317 90.5832 49.7008 90.5C49.4008 90.5 49.3008 90.4 49.3008 90.1L49.7008 77.7C49.696 77.6594 49.7004 77.6183 49.7137 77.5797C49.7271 77.5411 49.7491 77.506 49.778 77.4772C49.8068 77.4483 49.8419 77.4263 49.8805 77.4129C49.9191 77.3996 49.9602 77.3951 50.0007 77.4H52.7008C52.9008 77.4 53.0008 77.5 53.1008 77.7V77.8L52.9008 90.2Z" fill="#6B7373"/>
<path d="M59.4984 80.7C59.4414 80.7519 59.4057 80.8232 59.3984 80.9L59.4984 87C59.4984 87.1 59.4985 87.2 59.5985 87.2C59.638 87.2378 59.6853 87.2664 59.7372 87.2837C59.7891 87.3009 59.8442 87.3065 59.8984 87.3C61.9984 87.2 64.1985 87.2 66.2985 87C66.3527 86.9935 66.4078 86.999 66.4597 87.0163C66.5116 87.0336 66.559 87.0622 66.5985 87.1C66.6985 87.2 66.6985 87.2 66.6985 87.3L66.7985 89.8C66.807 89.8545 66.8026 89.9102 66.7855 89.9626C66.7684 90.0151 66.7392 90.0627 66.7002 90.1017C66.6612 90.1407 66.6136 90.1699 66.5612 90.187C66.5087 90.2041 66.4529 90.2085 66.3984 90.2C64.9984 90.3 63.5985 90.3 62.1985 90.4C60.9985 90.4 59.8985 90.5 58.6985 90.5H58.2985C57.9849 90.5301 57.6697 90.4601 57.3984 90.3C57.1105 90.1701 56.8415 90.0019 56.5985 89.8C56.3774 89.6108 56.2058 89.3705 56.0985 89.1C55.9846 88.8125 55.917 88.5087 55.8984 88.2V79.5C55.917 79.1913 55.9846 78.8875 56.0985 78.6C56.3543 78.0779 56.7764 77.6558 57.2985 77.4C57.586 77.2861 57.8898 77.2186 58.1985 77.2H58.4984C60.8984 77.2 63.2985 77.1 65.6985 76.9C65.7528 76.8935 65.8079 76.899 65.8597 76.9163C65.9116 76.9336 65.9589 76.9622 65.9984 77C66.0555 77.0519 66.0912 77.1232 66.0985 77.2L66.1985 79.7C66.207 79.7545 66.2025 79.8102 66.1854 79.8626C66.1683 79.9151 66.1392 79.9627 66.1002 80.0017C66.0612 80.0407 66.0135 80.0699 65.9611 80.087C65.9086 80.1041 65.8529 80.1085 65.7985 80.1L59.5985 80.4C59.6035 80.5089 59.5678 80.6158 59.4984 80.7Z" fill="#6B7373"/>
<path d="M73.6016 89.3999C73.6016 89.5999 73.5015 89.7999 73.3015 89.7999C72.3728 89.9199 71.4378 89.9867 70.5015 89.9999C70.2015 89.9999 70.1016 89.9 70.1016 89.7L69.1016 77.2999C69.103 77.2226 69.1218 77.1465 69.1564 77.0773C69.191 77.0081 69.2405 76.9475 69.3015 76.8999H69.4015C70.3015 76.7999 71.1015 76.8 72.0015 76.7C72.0788 76.7014 72.1549 76.7202 72.2241 76.7548C72.2933 76.7894 72.3539 76.839 72.4015 76.8999V77.0399L73.6016 89.3999Z" fill="#6B7373"/>
<path d="M84.0986 75.2H84.9985C85.2985 75.3 85.4985 75.3999 85.7985 75.4999L86.3985 76.0999C86.5984 76.3176 86.706 76.6045 86.6986 76.8999L88.4985 87.2999C88.507 87.3544 88.5026 87.4102 88.4855 87.4626C88.4685 87.515 88.4392 87.5627 88.4002 87.6017C88.3612 87.6407 88.3136 87.6699 88.2612 87.687C88.2087 87.704 88.1531 87.7085 88.0986 87.7C87.1986 87.9 86.2985 88 85.2985 88.2C85.2442 88.2065 85.1891 88.2009 85.1373 88.1836C85.0854 88.1663 85.038 88.1377 84.9985 88.0999C84.8985 87.9999 84.8985 87.9999 84.8985 87.8999L84.3985 84.5999C84.3879 84.5241 84.3528 84.4539 84.2985 84.3999C84.259 84.3621 84.2116 84.3336 84.1597 84.3163C84.1079 84.299 84.0528 84.2934 83.9985 84.2999L80.0986 84.8999C79.9986 84.8999 79.8985 84.9999 79.7985 84.9999C79.7607 85.0395 79.7322 85.0869 79.7149 85.1387C79.6976 85.1906 79.692 85.2457 79.6986 85.2999L80.0986 88.5999C80.0986 88.7999 79.9985 88.9999 79.7985 88.9999L76.9985 89.2999C76.6985 89.2999 76.5986 89.1999 76.5986 88.9999L75.3985 78.4999C75.3822 78.1965 75.416 77.8924 75.4985 77.5999C75.5703 77.3365 75.708 77.0956 75.8985 76.8999L76.4985 76.2999C76.7985 76.1999 76.9985 76.0999 77.2985 75.9999C79.6985 75.8999 81.8986 75.5 84.0986 75.2ZM83.8985 81.4999L83.3985 78.2L78.8985 78.7999L79.2985 82.0999C80.8437 82.0049 82.3806 81.8044 83.8985 81.4999Z" fill="#6B7373"/>
<path d="M99.8986 82.2C100.099 82.2 100.299 82.3 100.299 82.4L100.899 84.8V85.1L100.699 85.3C97.8986 86 94.9987 86.6 92.0987 87.1C91.7987 87.1 91.6986 87.1 91.6986 86.8L89.3986 74.6C89.2986 74.4 89.3987 74.3 89.5987 74.2H89.6986C90.5986 74 91.3986 73.9 92.2986 73.7C92.4986 73.6 92.5986 73.7 92.6986 73.9V74.04L94.5987 83.04C94.6032 83.0915 94.6257 83.1398 94.6623 83.1764C94.6988 83.213 94.7471 83.2355 94.7986 83.24C94.8986 83.24 94.9987 83.34 95.0987 83.24C96.5987 82.9 98.1986 82.6 99.8986 82.2Z" fill="#6B7373"/>
<path d="M108.2 57.6L102.7 54.9L102.6 0H4.90002L5 55.3L0 57.8L5 61.3V61.4H5.1001L5.40002 61.6V61.4H7.1001C7.1001 61.4 54 75.5 101.9 61.6H102.6V61.4L108.2 57.6Z" fill="#F7F7F7"/>
<path d="M24.2015 154.6C24.7236 154.856 25.1457 155.278 25.4015 155.8C25.5148 156.053 25.5826 156.324 25.6016 156.6V160.1C25.5949 160.378 25.5265 160.651 25.4015 160.9C25.1457 161.422 24.7236 161.844 24.2015 162.1C23.945 162.202 23.6759 162.269 23.4015 162.3H16.0015C15.8015 162.3 15.7016 162.2 15.6016 162V159.7C15.6064 159.611 15.6374 159.526 15.6908 159.455C15.7442 159.383 15.8175 159.33 15.9015 159.3H22.2015C22.2558 159.307 22.3109 159.301 22.3628 159.284C22.4147 159.266 22.462 159.238 22.5015 159.2C22.5585 159.148 22.5943 159.077 22.6016 159V157.5C22.5967 157.411 22.5656 157.326 22.5122 157.255C22.4588 157.183 22.3855 157.13 22.3015 157.1H17.8015C17.5233 157.093 17.25 157.025 17.0015 156.9C16.4794 156.644 16.0573 156.222 15.8015 155.7C15.6882 155.447 15.6206 155.176 15.6016 154.9V151.4C15.6082 151.122 15.6765 150.849 15.8015 150.6C16.0573 150.078 16.4794 149.656 17.0015 149.4C17.258 149.298 17.5271 149.231 17.8015 149.2H24.8015C25.0015 149.2 25.1015 149.3 25.2015 149.5V151.9C25.2015 152 25.2016 152.1 25.1016 152.1C25.0621 152.138 25.0146 152.166 24.9628 152.184C24.9109 152.201 24.8558 152.207 24.8015 152.2H18.9015C18.8015 152.2 18.7015 152.2 18.7015 152.3C18.6637 152.34 18.6351 152.387 18.6178 152.439C18.6005 152.491 18.595 152.546 18.6016 152.6V154.1C18.595 154.154 18.6005 154.209 18.6178 154.261C18.6351 154.313 18.6637 154.361 18.7015 154.4C18.7534 154.457 18.8247 154.493 18.9015 154.5H23.4015C23.6716 154.438 23.9549 154.474 24.2015 154.6Z" fill="#6B7373"/>
<path d="M38.2024 149.3C38.2402 149.34 38.2687 149.387 38.286 149.439C38.3033 149.491 38.3089 149.546 38.3024 149.6V151.9C38.3024 152 38.3024 152.1 38.2024 152.1C38.1629 152.138 38.1155 152.166 38.0636 152.184C38.0117 152.201 37.9566 152.207 37.9023 152.2H31.7024C31.6759 152.2 31.6505 152.211 31.6317 152.229C31.613 152.248 31.6024 152.274 31.6024 152.3V154.3C31.6024 154.327 31.613 154.352 31.6317 154.371C31.6505 154.389 31.6759 154.4 31.7024 154.4H37.0023C37.1023 154.4 37.2024 154.4 37.2024 154.5C37.2402 154.54 37.2687 154.587 37.286 154.639C37.3033 154.691 37.3089 154.746 37.3024 154.8V156.7C37.3089 156.754 37.3033 156.809 37.286 156.861C37.2687 156.913 37.2402 156.961 37.2024 157C37.1505 157.057 37.0791 157.093 37.0023 157.1H31.7024C31.6759 157.1 31.6505 157.111 31.6317 157.129C31.613 157.148 31.6024 157.174 31.6024 157.2V159.2C31.6024 159.227 31.613 159.252 31.6317 159.271C31.6505 159.29 31.6759 159.3 31.7024 159.3H37.9023C37.9912 159.305 38.0766 159.336 38.1478 159.389C38.219 159.443 38.2728 159.516 38.3024 159.6V161.9C38.2975 161.989 38.2664 162.074 38.213 162.146C38.1596 162.217 38.0863 162.27 38.0023 162.3H28.8024C28.6024 162.3 28.5023 162.2 28.4023 162V149.6C28.4072 149.511 28.4383 149.426 28.4917 149.355C28.5451 149.283 28.6184 149.23 28.7024 149.2H37.9023C37.9566 149.194 38.0117 149.199 38.0636 149.216C38.1155 149.234 38.1629 149.262 38.2024 149.3Z" fill="#6B7373"/>
<path d="M50.0015 149.2C50.2796 149.207 50.5529 149.275 50.8015 149.4C51.3381 149.635 51.7665 150.063 52.0015 150.6C52.1036 150.857 52.1709 151.126 52.2015 151.4V161.9C52.1967 161.989 52.1656 162.074 52.1122 162.146C52.0588 162.217 51.9854 162.271 51.9015 162.3H49.3015C49.2126 162.295 49.1272 162.264 49.056 162.211C48.9848 162.157 48.931 162.084 48.9015 162V158.7C48.908 158.646 48.9024 158.591 48.8851 158.539C48.8678 158.487 48.8393 158.44 48.8015 158.4C48.7496 158.343 48.6783 158.307 48.6016 158.3H44.9015C44.8126 158.305 44.7272 158.336 44.656 158.389C44.5848 158.443 44.531 158.516 44.5015 158.6V161.9C44.5015 162.1 44.4015 162.2 44.2015 162.3H41.5015C41.3015 162.3 41.2016 162.2 41.1016 162V151.4C41.1082 151.122 41.1765 150.849 41.3015 150.6C41.5573 150.078 41.9794 149.656 42.5015 149.4C42.758 149.298 43.0271 149.231 43.3015 149.2H50.0015ZM48.8015 155.4V152.1H44.4015V155.4H48.8015Z" fill="#6B7373"/>
<path d="M63.6001 154.6C64.1222 154.856 64.5443 155.278 64.8 155.8C64.9133 156.053 64.981 156.324 65 156.6V160.1C64.9934 160.378 64.9251 160.651 64.8 160.9C64.5443 161.422 64.1222 161.844 63.6001 162.1C63.3436 162.202 63.0745 162.269 62.8 162.3H55.4C55.2 162.3 55.1 162.2 55 162V159.7C55.0048 159.611 55.036 159.526 55.0894 159.455C55.1428 159.383 55.2161 159.33 55.3 159.3H61.6001C61.6544 159.307 61.7094 159.301 61.7612 159.284C61.8131 159.266 61.8605 159.238 61.9 159.2C61.9571 159.148 61.9927 159.077 62 159V157.5C61.9952 157.411 61.9642 157.326 61.9108 157.255C61.8574 157.183 61.784 157.13 61.7001 157.1H57.2001C56.7739 157.113 56.3538 156.996 55.9963 156.763C55.6388 156.531 55.361 156.195 55.2001 155.8C55.0868 155.547 55.019 155.276 55 155V151.5C55.0066 151.222 55.075 150.949 55.2001 150.7C55.4559 150.178 55.878 149.756 56.4 149.5C56.6566 149.398 56.9257 149.331 57.2001 149.3H64.2001C64.4001 149.3 64.5001 149.4 64.6001 149.6V152.04C64.6001 152.14 64.6 152.24 64.5 152.24C64.4605 152.278 64.4132 152.306 64.3613 152.324C64.3095 152.341 64.2544 152.347 64.2001 152.34H58.3C58.2 152.34 58.1001 152.34 58.1001 152.44C58.0623 152.48 58.0336 152.527 58.0164 152.579C57.9991 152.631 57.9935 152.686 58 152.74V154.24C57.9935 154.294 57.9991 154.349 58.0164 154.401C58.0336 154.453 58.0623 154.501 58.1001 154.54C58.152 154.597 58.2233 154.633 58.3 154.64H62.8C63.1 154.4 63.3001 154.5 63.6001 154.6Z" fill="#6B7373"/>
<path d="M76.5031 149.2C76.7812 149.207 77.0545 149.275 77.3031 149.4C77.8397 149.635 78.2681 150.063 78.5031 150.6C78.6052 150.857 78.6725 151.126 78.7031 151.4V160.1C78.6965 160.378 78.6281 160.651 78.5031 160.9C78.2473 161.422 77.8252 161.844 77.3031 162.1C77.0466 162.202 76.7775 162.269 76.5031 162.3H69.9031C69.6249 162.293 69.3517 162.225 69.1031 162.1C68.5665 161.865 68.138 161.437 67.9031 160.9C67.801 160.644 67.7338 160.374 67.7031 160.1V151.4C67.7098 151.122 67.778 150.849 67.9031 150.6C68.1589 150.078 68.5811 149.656 69.1031 149.4C69.3597 149.298 69.6287 149.231 69.9031 149.2H76.5031ZM75.4031 152.4H71.0031V159.1H75.4031V152.4Z" fill="#6B7373"/>
<path d="M92.4 149.3C92.4378 149.34 92.4665 149.387 92.4838 149.439C92.5011 149.491 92.5065 149.546 92.5 149.6V161.9C92.4952 161.989 92.4642 162.074 92.4108 162.146C92.3574 162.217 92.284 162.27 92.2001 162.3H89.5C89.4457 162.307 89.3907 162.301 89.3389 162.284C89.287 162.266 89.2396 162.238 89.2001 162.2C89.1485 162.196 89.1002 162.173 89.0636 162.136C89.027 162.1 89.0045 162.052 89 162L84.9 154.4V161.9C84.9 162.1 84.8001 162.2 84.6001 162.3H81.9C81.7 162.3 81.6 162.2 81.5 162V149.6C81.5 149.4 81.6 149.3 81.8 149.2H84.5C84.5543 149.194 84.6094 149.199 84.6613 149.216C84.7131 149.234 84.7605 149.262 84.8 149.3C84.8516 149.305 84.8998 149.327 84.9364 149.364C84.973 149.4 84.9955 149.449 85 149.5L89.1001 157.1V149.6C89.1049 149.511 89.1359 149.426 89.1893 149.355C89.2427 149.283 89.3161 149.23 89.4 149.2H92C92.2 149.2 92.3 149.3 92.4 149.3Z" fill="#6B7373"/>
<path d="M21.9031 133.8V136.8C21.9183 136.945 21.9895 137.079 22.1016 137.172C22.2136 137.265 22.3576 137.311 22.5031 137.3H33.7031C33.7805 137.302 33.8565 137.32 33.9257 137.355C33.9949 137.389 34.0556 137.439 34.1031 137.5C34.2286 137.637 34.2997 137.815 34.3031 138V142C34.3031 142.2 34.2031 142.3 34.1031 142.5C33.9929 142.605 33.8535 142.675 33.7031 142.7H17.3031C17.1577 142.711 17.0135 142.665 16.9015 142.572C16.7894 142.479 16.7183 142.345 16.7031 142.2V132.4C16.7057 131.885 16.8075 131.376 17.0031 130.9C17.186 130.45 17.4582 130.042 17.8031 129.7C18.1537 129.366 18.5597 129.095 19.0031 128.9C19.4791 128.705 19.9884 128.603 20.5031 128.6H28.4031C28.5584 128.589 28.7043 128.522 28.8145 128.411C28.9246 128.301 28.9915 128.155 29.0031 128V125.3C28.9915 125.145 28.9246 124.999 28.8145 124.889C28.7043 124.779 28.5584 124.712 28.4031 124.7H17.9031C17.7576 124.711 17.6136 124.665 17.5016 124.572C17.3895 124.479 17.3183 124.345 17.3031 124.2V120.04C17.3031 119.84 17.4031 119.74 17.5031 119.54C17.6133 119.435 17.7527 119.365 17.9031 119.34H30.3031C30.8177 119.343 31.3271 119.445 31.8031 119.64C32.253 119.823 32.6611 120.095 33.0031 120.44C33.3372 120.791 33.608 121.197 33.8031 121.64C33.9987 122.116 34.1006 122.625 34.1031 123.14V132.64C34.1017 132.717 34.0829 132.793 34.0483 132.863C34.0137 132.932 33.9641 132.992 33.9031 133.04C33.7664 133.166 33.5886 133.237 33.4031 133.24H22.2031C22.2031 133.3 21.9031 133.5 21.9031 133.8Z" fill="#6B7373"/>
<path d="M53.4015 119.3C53.9161 119.303 54.4254 119.404 54.9015 119.6C55.8498 119.998 56.604 120.752 57.0015 121.7C57.197 122.176 57.2989 122.685 57.3015 123.2V138.7C57.2989 139.215 57.197 139.724 57.0015 140.2C56.8185 140.65 56.5464 141.058 56.2015 141.4C55.8509 141.734 55.4448 142.005 55.0015 142.2C54.5254 142.396 54.0161 142.497 53.5015 142.5H43.5015C42.9868 142.497 42.4775 142.396 42.0015 142.2C41.0531 141.803 40.299 141.048 39.9015 140.1C39.7059 139.624 39.6041 139.115 39.6016 138.6V123.1C39.6041 122.585 39.7059 122.076 39.9015 121.6C40.0845 121.15 40.3567 120.742 40.7015 120.4C41.0777 120.099 41.4791 119.832 41.9015 119.6C42.3775 119.404 42.8868 119.303 43.4015 119.3H53.4015ZM51.6016 124.9H45.1016V136.9H51.6016V124.9Z" fill="#6B7373"/>
<path d="M69.7032 119.9V142.04C69.7144 142.185 69.6684 142.33 69.575 142.442C69.4816 142.554 69.3482 142.625 69.2032 142.64H64.4031C64.2577 142.651 64.1137 142.605 64.0016 142.512C63.8896 142.419 63.8183 142.285 63.8031 142.14V125.44C63.8031 125.34 63.8032 125.34 63.6032 125.34C63.4032 125.34 63.3031 125.44 63.3031 125.54L61.7032 126.84C61.617 126.906 61.5114 126.941 61.4031 126.94C61.3031 126.84 61.2031 126.74 61.3031 126.64V121.94C61.3031 121.74 61.4031 121.54 61.4031 121.34C61.4031 121.14 61.6032 121.04 61.7032 120.84L63.3031 119.54C63.5031 119.44 63.6031 119.34 63.8031 119.24C63.9921 119.159 64.198 119.124 64.4031 119.14H69.0031C69.069 119.114 69.1403 119.105 69.2106 119.112C69.281 119.12 69.3484 119.145 69.4073 119.184C69.4662 119.223 69.5148 119.276 69.5489 119.338C69.583 119.4 69.6016 119.469 69.6032 119.54C69.7032 119.8 69.7032 119.8 69.7032 119.9Z" fill="#6B7373"/>
<path d="M87.5031 119.3C88.0177 119.303 88.527 119.404 89.0031 119.6C89.9514 119.998 90.7057 120.752 91.1031 121.7C91.2987 122.176 91.4005 122.685 91.4031 123.2V142.04C91.3915 142.195 91.3246 142.341 91.2145 142.451C91.1044 142.562 90.9584 142.629 90.8031 142.64H86.2031C86.1258 142.639 86.0497 142.62 85.9805 142.585C85.9113 142.551 85.8507 142.501 85.8031 142.44C85.6776 142.303 85.6066 142.126 85.6031 141.94V136.44C85.6017 136.363 85.5829 136.287 85.5483 136.217C85.5137 136.148 85.4641 136.088 85.4031 136.04C85.2664 135.915 85.0886 135.843 84.9031 135.84H77.5031C76.9884 135.837 76.4791 135.736 76.0031 135.54C75.5532 135.357 75.145 135.085 74.8031 134.74C74.4689 134.389 74.1982 133.983 74.0031 133.54C73.8075 133.064 73.7057 132.555 73.7031 132.04V123.14C73.7057 122.625 73.8075 122.116 74.0031 121.64C74.186 121.19 74.4582 120.782 74.8031 120.44C75.1792 120.139 75.5807 119.872 76.0031 119.64C76.4791 119.444 76.9884 119.343 77.5031 119.34L87.5031 119.3ZM85.7031 124.6H79.2031V130.5H85.7031V124.6Z" fill="#6B7373"/>
<path d="M22.1976 43.3999C22.2976 43.4999 22.4976 43.5999 22.4976 43.6999C22.4976 43.7999 22.5976 43.8999 22.4976 43.8999V46.8999C22.4976 46.9999 22.4976 46.9999 22.3976 46.9999H21.5977V44.1999H20.9976V47.0399H20.1976C20.0976 47.0399 20.0977 47.0399 20.0977 46.9399V44.2399H19.4976V46.9399C19.4976 46.9665 19.487 46.9919 19.4683 47.0106C19.4495 47.0294 19.4241 47.0399 19.3976 47.0399H18.6976C18.6711 47.0399 18.6457 47.0294 18.627 47.0106C18.6082 46.9919 18.5977 46.9665 18.5977 46.9399V43.4399C18.5977 43.4134 18.6082 43.388 18.627 43.3692C18.6457 43.3505 18.6711 43.3399 18.6976 43.3399H21.8976C22.0976 43.2999 22.0976 43.2999 22.1976 43.3999Z" fill="#353535"/>
<path d="M25.9984 43.2999H26.1985C26.2985 43.3999 26.4984 43.4999 26.4984 43.5999C26.4984 43.6999 26.5984 43.7999 26.4984 43.7999V46.7999C26.4984 46.8999 26.4984 46.8999 26.3984 46.8999H25.6985C25.5985 46.8999 25.5985 46.8999 25.5985 46.7999V45.6999H24.3984C24.2984 45.6999 24.2985 45.6999 24.2985 45.7999V46.7999C24.2985 46.8265 24.2879 46.8519 24.2692 46.8707C24.2504 46.8894 24.225 46.8999 24.1985 46.8999H23.4984C23.4719 46.8999 23.4465 46.8894 23.4277 46.8707C23.409 46.8519 23.3984 46.8265 23.3984 46.7999V43.5999C23.3984 43.4999 23.4984 43.4999 23.4984 43.3999C23.4984 43.2999 23.5985 43.2999 23.6985 43.2999C23.7985 43.2999 23.8984 43.1999 23.8984 43.2999H25.9984ZM25.5985 45.0999V44.1999H24.2985V45.0999H25.5985Z" fill="#353535"/>
<path d="M30.0007 43.3V46.6001C30.0007 46.7001 29.9008 46.7 29.9008 46.8C29.9008 46.9 29.8008 46.9001 29.7008 46.9001H27.7008C27.5846 46.8476 27.4854 46.7635 27.4147 46.6574C27.3439 46.5513 27.3045 46.4275 27.3008 46.3V45.2001C27.3008 45.1735 27.3113 45.1481 27.3301 45.1293C27.3488 45.1106 27.3742 45.1001 27.4008 45.1001H28.1008C28.1274 45.1001 28.1528 45.1106 28.1715 45.1293C28.1903 45.1481 28.2008 45.1735 28.2008 45.2001V46.1001H29.2008V43.3H30.0007Z" fill="#353535"/>
<path d="M33.3008 43.3H33.5007C33.6007 43.4 33.8008 43.5 33.8008 43.6C33.8008 43.7 33.9008 43.8 33.8008 43.8V46.5C33.8008 46.6 33.7008 46.6 33.7008 46.7C33.7008 46.8 33.6007 46.8 33.5007 46.8H31.2008C31.0846 46.7475 30.9854 46.6634 30.9147 46.5573C30.8439 46.4513 30.8045 46.3274 30.8008 46.2V43.5C30.8008 43.4 30.9008 43.4 30.9008 43.3C30.9008 43.2 31.0008 43.2 31.1008 43.2C31.2008 43.2 31.3008 43.1 31.3008 43.2L33.3008 43.3ZM33.0007 44.2H31.7008V46.1H33.0007V44.2Z" fill="#353535"/>
<path d="M38.0985 47.0399L37.1985 47.1399H37.0985L36.9984 47.0399L36.3984 46.0399H35.7985V47.0399C35.7985 47.0665 35.7879 47.0919 35.7692 47.1106C35.7504 47.1294 35.725 47.1399 35.6985 47.1399H34.9984C34.9719 47.1399 34.9465 47.1294 34.9277 47.1106C34.909 47.0919 34.8984 47.0665 34.8984 47.0399V43.5399C34.8984 43.5134 34.909 43.488 34.9277 43.4692C34.9465 43.4505 34.9719 43.4399 34.9984 43.4399H37.5985C37.6985 43.5399 37.8984 43.6399 37.8984 43.7399C37.8984 43.8399 37.9984 43.9399 37.8984 43.9399V45.3399C37.9134 45.4809 37.878 45.6226 37.7985 45.7399C37.6985 45.8399 37.5984 45.9399 37.4984 45.9399L38.0985 47.0399ZM36.9984 44.2399H35.6985V45.1399H36.9984V44.2399Z" fill="#353535"/>
<path d="M43.0992 46.1C43.1992 46.1 43.1992 46.2 43.0992 46.1L43.1992 46.9V47.04H40.7992C40.7727 47.04 40.7473 47.0294 40.7285 47.0107C40.7098 46.9919 40.6992 46.9665 40.6992 46.94V43.44C40.6992 43.4134 40.7098 43.388 40.7285 43.3693C40.7473 43.3505 40.7727 43.34 40.7992 43.34H41.4991C41.5257 43.34 41.5512 43.3505 41.5699 43.3693C41.5887 43.388 41.5992 43.4134 41.5992 43.44V46.14H43.0992V46.1Z" fill="#353535"/>
<path d="M46.5992 43.3V44.1001H44.6992V44.8H46.2992V45.5H44.6992V46.1001H46.4991C46.5991 46.1001 46.5992 46.1001 46.5992 46.2001V46.9001C46.5992 47.0001 46.5991 47 46.4991 47H43.7992C43.7861 47 43.7731 46.9975 43.761 46.9924C43.7489 46.9874 43.7378 46.98 43.7285 46.9708C43.7192 46.9615 43.7118 46.9505 43.7068 46.9383C43.7018 46.9262 43.6992 46.9132 43.6992 46.9001V43.4001C43.6992 43.3001 43.6992 43.3 43.7992 43.3H46.5992Z" fill="#353535"/>
<path d="M49.9984 43.2999H50.1985C50.2985 43.3999 50.4984 43.4999 50.4984 43.5999C50.4984 43.6999 50.5984 43.7999 50.4984 43.7999V46.7999C50.4984 46.8999 50.4984 46.8999 50.3984 46.8999H49.6985C49.5985 46.8999 49.5985 46.8999 49.5985 46.7999V45.6999H48.3984C48.2984 45.6999 48.2985 45.6999 48.2985 45.7999V46.7999C48.2985 46.8265 48.2879 46.8519 48.2692 46.8707C48.2504 46.8894 48.225 46.8999 48.1985 46.8999H47.4984C47.4719 46.8999 47.4465 46.8894 47.4277 46.8707C47.409 46.8519 47.3984 46.8265 47.3984 46.7999V43.5999C47.3984 43.4999 47.4984 43.4999 47.4984 43.3999C47.4984 43.2999 47.5985 43.2999 47.6985 43.2999C47.7985 43.2999 47.8984 43.1999 47.8984 43.2999H49.9984ZM49.5985 45.0999V44.1999H48.2985V45.0999H49.5985Z" fill="#353535"/>
<path d="M54.5 45.04C54.5 45.14 54.6 45.14 54.5 45.04V46.64C54.5 46.74 54.4 46.74 54.4 46.84C54.4 46.94 54.3001 46.94 54.2001 46.94H51.9C51.7838 46.8875 51.6847 46.8035 51.614 46.6974C51.5433 46.5913 51.5037 46.4674 51.5 46.34V43.64C51.5 43.54 51.6001 43.54 51.6001 43.44C51.6001 43.34 51.7 43.34 51.8 43.34C51.9 43.34 52 43.24 52 43.34H54.2001C54.3001 43.34 54.3 43.34 54.3 43.44V44.14C54.3 44.24 54.3001 44.24 54.2001 44.24H52.3V46.14H53.5C53.6 46.14 53.6001 46.14 53.6001 46.04V45.14C53.6001 45.04 53.6001 45.04 53.7001 45.04H54.5Z" fill="#353535"/>
<path d="M58.4976 43.3V46.6001C58.4976 46.7001 58.3976 46.7 58.3976 46.8C58.3976 46.9 58.2976 46.9001 58.1976 46.9001H55.8976C55.6976 46.8001 55.5977 46.7001 55.5977 46.6001V43.4001C55.5977 43.3735 55.6082 43.3481 55.627 43.3293C55.6457 43.3106 55.6711 43.3 55.6976 43.3H56.3976C56.4241 43.3 56.4495 43.3106 56.4683 43.3293C56.487 43.3481 56.4976 43.3735 56.4976 43.4001V46.1001H57.7976V43.4001C57.7976 43.3001 57.7976 43.3 57.8976 43.3H58.4976Z" fill="#353535"/>
<path d="M62.2008 43.3V44.1001H60.3008V44.8H61.9008V45.5H60.3008V46.1001H62.1008C62.2008 46.1001 62.2008 46.1001 62.2008 46.2001V46.9001C62.2008 47.0001 62.2008 47 62.1008 47H59.4008C59.3876 47 59.3747 46.9975 59.3625 46.9924C59.3504 46.9874 59.3394 46.98 59.3301 46.9708C59.3208 46.9615 59.3134 46.9505 59.3083 46.9383C59.3033 46.9262 59.3008 46.9132 59.3008 46.9001V43.4001C59.3008 43.3001 59.3008 43.3 59.4008 43.3H62.2008Z" fill="#353535"/>
<path d="M67.8984 43.3L67.9984 46.9001C67.9984 47.0001 67.9984 47 67.8984 47H67.1985C67.0985 47 67.0985 47.0001 67.0985 46.9001V45.7001C67.0985 45.6001 67.0984 45.6001 66.9984 45.6001H65.7985V46.9001C65.7985 46.9266 65.7879 46.952 65.7692 46.9708C65.7504 46.9895 65.725 47 65.6985 47H64.9984C64.9719 47 64.9465 46.9895 64.9277 46.9708C64.909 46.952 64.8984 46.9266 64.8984 46.9001V43.4001C64.8984 43.3735 64.909 43.3481 64.9277 43.3293C64.9465 43.3106 64.9719 43.3 64.9984 43.3H65.6985C65.725 43.3 65.7504 43.3106 65.7692 43.3293C65.7879 43.3481 65.7985 43.3735 65.7985 43.4001V44.6001C65.7985 44.6266 65.809 44.652 65.8278 44.6708C65.8465 44.6895 65.8719 44.7001 65.8984 44.7001H67.0985V43.4001C67.0985 43.3001 67.0985 43.3 67.1985 43.3H67.8984Z" fill="#353535"/>
<path d="M71.4008 43.2999H71.6008C71.7008 43.3999 71.9008 43.4999 71.9008 43.5999C71.9008 43.6999 72.0008 43.7999 71.9008 43.7999V46.7999C71.9008 46.8999 71.9008 46.8999 71.8008 46.8999H71.1008C71.0008 46.8999 71.0007 46.8999 71.0007 46.7999V45.6999H69.8008C69.7008 45.6999 69.7008 45.6999 69.7008 45.7999V46.7999C69.7008 46.8265 69.6903 46.8519 69.6715 46.8707C69.6528 46.8894 69.6274 46.8999 69.6008 46.8999H68.9008C68.8742 46.8999 68.8488 46.8894 68.8301 46.8707C68.8113 46.8519 68.8008 46.8265 68.8008 46.7999V43.5999C68.8008 43.4999 68.9008 43.4999 68.9008 43.3999C68.9008 43.2999 69.0008 43.2999 69.1008 43.2999C69.2008 43.2999 69.3008 43.1999 69.3008 43.2999H71.4008ZM71.1008 45.0999V44.1999H69.8008V45.0999H71.1008Z" fill="#353535"/>
<path d="M73.8 44.2V46.1H75.6001C75.7001 46.1 75.7001 46.1 75.7001 46.2V46.9C75.7001 47 75.7001 47 75.6001 47H73.3C73.2 47 73.2001 46.9 73.1001 46.9C73.0001 46.9 73 46.8 73 46.7V43.8C73 43.7 73.1001 43.7 73.1001 43.6C73.1001 43.5 73.2 43.5 73.3 43.5C73.4 43.5 73.5 43.4 73.5 43.5H75.6001C75.7001 43.5 75.7001 43.5 75.7001 43.6V44.3C75.7001 44.4 75.7001 44.4 75.6001 44.4L73.8 44.2Z" fill="#353535"/>
<path d="M78.6992 44.9L79.9991 47V47.1H78.8992L78.7992 47L77.9991 45.5L77.5992 46V47C77.5992 47.0265 77.5887 47.052 77.5699 47.0707C77.5512 47.0895 77.5257 47.1 77.4991 47.1H76.7992C76.7727 47.1 76.7473 47.0895 76.7285 47.0707C76.7098 47.052 76.6992 47.0265 76.6992 47V43.5C76.6992 43.4735 76.7098 43.4481 76.7285 43.4293C76.7473 43.4106 76.7727 43.4 76.7992 43.4H77.4991C77.5257 43.4 77.5512 43.4106 77.5699 43.4293C77.5887 43.4481 77.5992 43.4735 77.5992 43.5V45.1L78.9991 43.5L79.0992 43.4H80.0992V43.5L78.6992 44.9Z" fill="#353535"/>
<path d="M81.5992 46.9001L80.7992 47C80.7727 47 80.7473 46.9895 80.7285 46.9708C80.7098 46.952 80.6992 46.9266 80.6992 46.9001V43.4001C80.6992 43.3735 80.7098 43.3481 80.7285 43.3293C80.7473 43.3106 80.7727 43.3 80.7992 43.3H81.4991C81.5257 43.3 81.5512 43.3106 81.5699 43.3293C81.5887 43.3481 81.5992 43.3735 81.5992 43.4001V46.9001Z" fill="#353535"/>
<path d="M85.1985 43.4C85.2985 43.5 85.4984 43.6 85.4984 43.7C85.4984 43.8 85.5984 43.9 85.4984 43.9V46.9C85.4984 47 85.4984 47 85.3984 47H84.5985V44.2H83.2985V46.9C83.2985 46.9131 83.2959 46.9262 83.2909 46.9383C83.2859 46.9504 83.2785 46.9614 83.2692 46.9707C83.2599 46.98 83.2488 46.9874 83.2367 46.9924C83.2246 46.9974 83.2116 47 83.1985 47H82.4984C82.4853 47 82.4723 46.9974 82.4602 46.9924C82.4481 46.9874 82.437 46.98 82.4277 46.9707C82.4184 46.9614 82.4112 46.9504 82.4061 46.9383C82.4011 46.9262 82.3984 46.9131 82.3984 46.9V43.4C82.3984 43.3735 82.409 43.3481 82.4277 43.3293C82.4465 43.3106 82.4719 43.3 82.4984 43.3H84.8984C84.9527 43.2935 85.0078 43.2991 85.0597 43.3164C85.1116 43.3336 85.159 43.3622 85.1985 43.4Z" fill="#353535"/>
<path d="M89.5 45.04V46.64C89.5 46.74 89.4 46.74 89.4 46.84C89.4 46.94 89.3001 46.94 89.2001 46.94H86.9C86.7838 46.8875 86.6847 46.8035 86.614 46.6974C86.5433 46.5913 86.5037 46.4674 86.5 46.34V43.64C86.5 43.54 86.6001 43.54 86.6001 43.44C86.6001 43.34 86.7 43.34 86.8 43.34C86.9 43.34 87 43.24 87 43.34H89.2001C89.3001 43.34 89.3 43.34 89.3 43.44V44.14C89.3 44.24 89.3001 44.24 89.2001 44.24H87.3V46.14H88.5C88.6 46.14 88.6001 46.14 88.6001 46.04V45.14C88.6001 45.04 88.6001 45.04 88.7001 45.04H89.5Z" fill="#353535"/>
<path d="M41.1993 17.5C42.1476 17.8975 42.9018 18.6517 43.2993 19.6C43.4948 20.076 43.5967 20.5854 43.5993 21.1V40.8C43.5878 40.9553 43.5208 41.1013 43.4107 41.2114C43.3006 41.3215 43.1545 41.3884 42.9992 41.4H38.2993C38.2219 41.3985 38.1458 41.3798 38.0766 41.3452C38.0074 41.3106 37.9468 41.261 37.8992 41.2C37.7738 41.0633 37.7027 40.8855 37.6993 40.7V22.9H33.8992V40.8C33.8992 41 33.7993 41.1 33.6993 41.3C33.589 41.4053 33.4496 41.475 33.2993 41.5H28.9992C28.8439 41.4884 28.698 41.4215 28.5878 41.3114C28.4777 41.2013 28.4108 41.0553 28.3992 40.9V22.9H24.5993V40.8C24.6105 40.9454 24.5645 41.0895 24.4711 41.2015C24.3778 41.3136 24.2444 41.3848 24.0993 41.4H19.1993C19.0539 41.4112 18.9097 41.3652 18.7977 41.2719C18.6856 41.1785 18.6145 41.0451 18.5993 40.9V17.9C18.5881 17.7546 18.634 17.6105 18.7274 17.4984C18.8207 17.3864 18.9542 17.3152 19.0993 17.3H39.6993C40.2081 17.2177 40.7298 17.2872 41.1993 17.5Z" fill="#C53C02"/>
<path d="M41.2009 17.5C42.1492 17.8974 42.9034 18.6516 43.3009 19.6C43.4964 20.076 43.5983 20.5853 43.6009 21.1V22.9H18.7009V17.8C18.6897 17.6545 18.7357 17.5105 18.829 17.3984C18.9224 17.2863 19.0558 17.2151 19.2009 17.2H39.8009C40.282 17.2134 40.7565 17.3151 41.2009 17.5Z" fill="#751B00"/>
<path d="M64.1008 35.6C64.3008 35.6 64.4008 35.7 64.6008 35.8C64.7263 35.9367 64.7974 36.1145 64.8008 36.3V40.8C64.8008 41 64.7008 41.1 64.6008 41.3C64.4642 41.4255 64.2863 41.4966 64.1008 41.5H48.0007C47.7007 41.6 47.4008 41.3 47.3008 41V17.9C47.3022 17.7462 47.351 17.5964 47.4404 17.4712C47.5299 17.346 47.6557 17.2513 47.8008 17.2H52.9008C53.2008 17.1 53.5008 17.4 53.6008 17.7V35.04C53.6023 35.1174 53.621 35.1934 53.6556 35.2626C53.6902 35.3318 53.7398 35.3924 53.8008 35.44C53.9375 35.5655 54.1153 35.6366 54.3008 35.64L64.1008 35.6Z" fill="#265A8F"/>
<path d="M53.6008 41.4H48.0007C47.8469 41.3985 47.6972 41.3497 47.572 41.2603C47.4468 41.1708 47.3521 41.045 47.3008 40.9V17.9C47.3022 17.7461 47.351 17.5964 47.4404 17.4711C47.5299 17.3459 47.6557 17.2512 47.8008 17.2H52.9008C53.0546 17.2014 53.2044 17.2502 53.3296 17.3396C53.4548 17.4291 53.5495 17.5549 53.6008 17.7V41.4Z" fill="#162F51"/>
<path d="M88.8013 17.2C88.894 17.1972 88.9862 17.2134 89.0724 17.2476C89.1586 17.2818 89.2368 17.3333 89.3024 17.3988C89.368 17.4644 89.4194 17.5427 89.4536 17.6288C89.4878 17.715 89.504 17.8073 89.5012 17.9V40.9C89.5012 41.1 89.4013 41.2 89.3013 41.4C89.1646 41.5254 88.9868 41.5966 88.8013 41.6H83.8013C83.7086 41.6027 83.6164 41.5865 83.5302 41.5523C83.444 41.5181 83.3658 41.4667 83.3002 41.4011C83.2346 41.3355 83.1831 41.2573 83.1489 41.1711C83.1147 41.0849 83.0986 40.9926 83.1013 40.9V32.9C83.1013 32.7 83.0013 32.6 82.9013 32.4C82.7646 32.2745 82.5868 32.2034 82.4013 32.2H75.4013C75.3086 32.1972 75.2163 32.2134 75.1301 32.2476C75.044 32.2818 74.9657 32.3333 74.9002 32.3988C74.8346 32.4644 74.7831 32.5427 74.7489 32.6288C74.7147 32.715 74.6985 32.8073 74.7013 32.9V40.9C74.7126 40.9946 74.7022 41.0906 74.671 41.1806C74.6398 41.2707 74.5885 41.3525 74.5211 41.4199C74.4537 41.4872 74.3719 41.5385 74.2819 41.5697C74.1918 41.6009 74.0959 41.6112 74.0012 41.6H69.0012C68.5012 41.6 68.3013 41.4 68.3013 40.9V17.9C68.29 17.8053 68.3004 17.7094 68.3316 17.6193C68.3628 17.5293 68.414 17.4475 68.4813 17.3801C68.5487 17.3127 68.6305 17.2615 68.7206 17.2303C68.8107 17.1991 68.9066 17.1887 69.0012 17.2H74.0012C74.5012 17.2 74.7013 17.4 74.7013 17.9V25.7C74.6901 25.7946 74.7004 25.8906 74.7316 25.9806C74.7628 26.0707 74.814 26.1525 74.8814 26.2199C74.9488 26.2872 75.0306 26.3385 75.1206 26.3697C75.2107 26.4009 75.3066 26.4112 75.4013 26.4H82.4013C82.6013 26.4 82.7013 26.3 82.9013 26.2C83.0267 26.0633 83.0979 25.8855 83.1013 25.7V17.9C83.1013 17.7 83.2013 17.6 83.3013 17.4C83.438 17.2745 83.6158 17.2034 83.8013 17.2H88.8013Z" fill="#FDEE00"/>
<path d="M74.799 32.8V40.8C74.8102 40.8946 74.7999 40.9906 74.7687 41.0806C74.7375 41.1707 74.6863 41.2525 74.6189 41.3199C74.5515 41.3873 74.4697 41.4385 74.3797 41.4697C74.2896 41.5009 74.1937 41.5112 74.099 41.5H69.099C68.599 41.5 68.3989 41.3 68.3989 40.8V17.8C68.3877 17.7054 68.398 17.6094 68.4292 17.5193C68.4604 17.4293 68.5117 17.3475 68.5791 17.2801C68.6465 17.2127 68.7283 17.1615 68.8184 17.1303C68.9084 17.0991 69.0044 17.0887 69.099 17.1H74.099C74.599 17.1 74.799 17.3 74.799 17.8V32.8Z" fill="#ECC700"/>
<path d="M88.7979 17.2C88.8906 17.1972 88.9828 17.2135 89.069 17.2477C89.1552 17.2819 89.2334 17.3333 89.299 17.3989C89.3646 17.4644 89.4161 17.5427 89.4503 17.6289C89.4845 17.7151 89.5006 17.8073 89.4979 17.9V40.9C89.4979 41.1 89.3979 41.2 89.2979 41.4C89.1612 41.5255 88.9834 41.5966 88.7979 41.6H83.7979C83.7052 41.6028 83.613 41.5866 83.5268 41.5524C83.4406 41.5182 83.3624 41.4667 83.2968 41.4011C83.2313 41.3356 83.1798 41.2573 83.1456 41.1711C83.1114 41.0849 83.0952 40.9927 83.098 40.9V17.9C83.098 17.7 83.1979 17.6 83.2979 17.4C83.4346 17.2746 83.6124 17.2034 83.7979 17.2H88.7979Z" fill="#ECC700"/>
</svg>
